<svg xmlns="http://www.w3.org/2000/svg" width="600" height="260" viewBox="0 0 600 260"><defs><linearGradient id="bg"><stop stop-color="#020a12"/><stop offset="1" stop-color="#020a12"/></linearGradient></defs><rect width="600" height="260" fill="url(#bg)"/><g font-family="Arial,sans-serif"><rect width="600" height="43" fill="#020a12"/><text x="25" y="26" fill="#ffffff" font-size="13" font-weight="700">AMINE ELKARTITE</text><g fill="#a9b8c7" font-size="7"><text x="269" y="26">Accueil</text><text x="321" y="26">À propos</text><text x="380" y="26">Collection</text><text x="448" y="26">Contact</text></g><rect x="515" y="13" width="63" height="18" rx="4" fill="#0095ff"/><text x="546" y="25" text-anchor="middle" fill="#fff" font-size="7">Découvrir</text><path d="m395 57 157 19-15 133-171-22Z" fill="#051426" stroke="#506575" stroke-width="3"/><path d="m366 187 171 22 36 24-211-23-24-15Z" fill="#24323f"/><text x="405" y="105" fill="#81c8ff" font-size="24" font-weight="700" transform="rotate(7 405 105)">Build.</text><text x="402" y="132" fill="#81c8ff" font-size="24" font-weight="700" transform="rotate(7 402 132)">Better.</text><text x="399" y="159" fill="#81c8ff" font-size="24" font-weight="700" transform="rotate(7 399 159)">Together.</text><text x="30" y="104" fill="#ffffff" font-size="24" font-weight="700" font-family="Arial">Développeur Full-Stack</text><text x="30" y="139" fill="#0095ff" font-size="25" font-weight="700" font-family="Arial">Amine ELKARTITE</text><text x="30" y="167" fill="#a9b8c7" font-size="10">Des solutions modernes et performantes.</text><rect x="30" y="187" width="119" height="29" rx="5" fill="#0095ff"/><text x="89" y="206" fill="#fff" text-anchor="middle" font-size="9">Voir mes projets</text></g></svg>
